<svg width="120" height="25" viewBox="0 0 120 25" fill="none" xmlns="http://www.w3.org/2000/svg">
<g clip-path="url(#clip0_201_278)">
<path d="M119.787 18.562V21.5316H117.296C114.638 21.4481 113.218 20.0127 113.218 17.3165V10.5342H111.479V7.92911H113.218V5.01266H116.894V7.89873H119.704V10.4962H116.894V16.9519C116.894 17.8253 117.068 18.524 118.413 18.524L119.787 18.562Z" fill="#232536"/>
<path d="M96.8282 14.757V14.5595C96.7884 13.686 96.9214 12.8132 97.2196 11.9912C97.5178 11.1691 97.9753 10.4141 98.5658 9.76917C99.1564 9.12429 99.8684 8.60229 100.661 8.2331C101.454 7.86392 102.311 7.65479 103.185 7.61772C103.36 7.61772 103.542 7.61772 103.717 7.61772C107.188 7.61772 110.233 9.63797 110.233 14.4532V15.4785H100.588C100.686 17.6962 101.886 18.9494 103.907 18.9494C105.646 18.9494 106.459 18.1899 106.694 17.081H110.165C109.74 19.9747 107.431 21.5848 103.778 21.5848C99.7674 21.5544 96.8282 19.0177 96.8282 14.757ZM106.618 13.1544C106.489 11.1342 105.471 10.162 103.702 10.162C101.932 10.162 100.914 11.2557 100.664 13.1544H106.618Z" fill="#232536"/>
<path d="M81.8204 14.757V14.5595C81.7806 13.6872 81.9131 12.8156 82.2103 11.9945C82.5076 11.1735 82.9637 10.419 83.5527 9.77435C84.1416 9.12967 84.8519 8.60737 85.6428 8.23733C86.4337 7.86728 87.2898 7.65673 88.1622 7.61772C88.3368 7.61772 88.5191 7.61772 88.6938 7.61772C92.1647 7.61772 95.2178 9.63797 95.2178 14.4532V15.4785H85.5799C85.6786 17.6962 86.8786 18.9494 88.8989 18.9494C90.6381 18.9494 91.4508 18.1899 91.6862 17.081H95.1571C94.7242 19.9747 92.4153 21.5848 88.7622 21.5848C84.7596 21.5544 81.8204 19.0177 81.8204 14.757ZM91.6103 13.1544C91.4811 11.1342 90.4634 10.162 88.6938 10.162C86.9242 10.162 85.9368 11.2861 85.6558 13.1468L91.6103 13.1544Z" fill="#232536"/>
<path d="M60.7598 7.89874H64.6484L67.0256 16.9063L69.6306 7.89874H72.6686L75.0231 16.9063L77.5294 7.89874H81.0914L76.8686 21.281H73.2231L70.9446 12.881L68.5066 21.281H64.8155L60.7598 7.89874Z" fill="#232536"/>
<path d="M48.4023 17.0734H51.8732C52.0327 18.281 52.6327 18.9722 54.2277 18.9722C55.6555 18.9722 56.3163 18.4329 56.3163 17.5139C56.3163 16.5949 55.5568 16.2076 53.6125 15.9342C50.0504 15.3949 48.6758 14.3696 48.6758 11.757C48.6758 8.96962 51.2277 7.58734 53.9922 7.58734C56.9618 7.58734 59.2023 8.66582 59.5213 11.7418H56.096C56.0742 11.504 56.0054 11.2729 55.8937 11.0618C55.782 10.8507 55.6296 10.6639 55.4453 10.5121C55.261 10.3602 55.0484 10.2464 54.8199 10.1772C54.5913 10.108 54.3513 10.0848 54.1137 10.1089H53.9998C52.7998 10.1089 52.1011 10.6709 52.1011 11.4911C52.1011 12.3114 52.7466 12.6684 54.7061 12.9494C58.0327 13.4506 59.8935 14.2937 59.8935 17.157C59.8935 20.0203 57.7897 21.5544 54.2656 21.5544C50.7416 21.5544 48.5011 19.9671 48.4023 17.0734Z" fill="#232536"/>
<path d="M33.6533 7.89873H37.3293V10.0177C37.7436 9.23995 38.3725 8.59748 39.1413 8.16666C39.91 7.73583 40.7863 7.53476 41.666 7.58734C44.271 7.58734 46.1622 9.17468 46.1622 12.7975V21.3114H42.5318V13.3291C42.5318 11.5139 41.8255 10.6481 40.185 10.6481C39.8382 10.6179 39.4889 10.6565 39.1572 10.7617C38.8254 10.8668 38.5176 11.0365 38.2516 11.2609C37.9855 11.4853 37.7664 11.76 37.6069 12.0693C37.4473 12.3786 37.3504 12.7164 37.3217 13.0633C37.3027 13.2248 37.3027 13.3879 37.3217 13.5494V21.281H33.6533V7.89873Z" fill="#232536"/>
<path d="M26.5598 4.53418C26.5465 4.16767 26.6422 3.80545 26.8349 3.49338C27.0275 3.18131 27.3085 2.93342 27.6421 2.78109C27.9757 2.62877 28.347 2.57886 28.709 2.63769C29.071 2.69652 29.4074 2.86143 29.6756 3.11156C29.9439 3.36168 30.1318 3.68577 30.2157 4.04279C30.2997 4.3998 30.2758 4.77369 30.1471 5.11712C30.0184 5.46055 29.7907 5.75807 29.4928 5.97202C29.1949 6.18597 28.8403 6.30672 28.4737 6.31899H28.4054C28.1779 6.33339 27.9498 6.30273 27.7342 6.22877C27.5185 6.15481 27.3196 6.03901 27.1489 5.888C26.9781 5.737 26.8389 5.55376 26.7391 5.34881C26.6393 5.14386 26.581 4.92122 26.5674 4.69367C26.5611 4.64075 26.5586 4.58745 26.5598 4.53418ZM26.5598 7.89873H30.2737V21.281H26.575L26.5598 7.89873Z" fill="#232536"/>
<path d="M12.5625 2.99241H24.3043V6.23545H16.7093V11.0734H22.7245V14.1949H16.7017V21.281H12.5625V2.99241Z" fill="#232536"/>
<path d="M5.47595 8.97721C5.47595 10.1241 5.47595 11.5215 3.8962 12.0911C5.51393 12.6456 5.47595 13.8228 5.47595 15.0532V19.6101C5.47595 20.4759 5.82532 21 6.4481 21.1291C6.58495 21.1753 6.72912 21.1959 6.87342 21.1899H8.39241V24.2278H5.88608C3.21266 24.2278 1.73924 22.7089 1.73924 19.8911V14.4987C1.72028 14.2219 1.59821 13.9622 1.39714 13.771C1.19607 13.5798 0.930606 13.4709 0.653165 13.4658H0V10.8H0.653165C0.936141 10.7963 1.20682 10.6837 1.40904 10.4858C1.61126 10.2878 1.72951 10.0195 1.73924 9.73671V4.26835C1.73924 1.4962 3.18228 0 5.88608 0H8.41519V2.9924H6.8962C6.75173 2.99282 6.60822 3.01589 6.47089 3.06076C5.8481 3.22025 5.49873 3.73671 5.49873 4.57975L5.47595 8.97721Z" fill="#232536"/>
</g>
<defs>
<clipPath id="clip0_201_278">
<rect width="120" height="24.3038" fill="white"/>
</clipPath>
</defs>
</svg>
