<svg width="120" height="25" fill="none" xmlns="http://www.w3.org/2000/svg"><g clip-path="url(#clip0_201_278)" fill="#232536"><path d="M119.787 18.562v2.97h-2.491c-2.658-.084-4.078-1.52-4.078-4.215v-6.783h-1.739V7.93h1.739V5.013h3.676v2.886h2.81v2.597h-2.81v6.456c0 .873.174 1.572 1.519 1.572l1.374.038zm-22.959-3.805v-.197a6.644 6.644 0 016.357-6.942h.532c3.471 0 6.516 2.02 6.516 6.835v1.026h-9.645c.098 2.217 1.298 3.47 3.319 3.47 1.739 0 2.552-.76 2.787-1.868h3.471c-.425 2.894-2.734 4.504-6.387 4.504-4.01-.03-6.95-2.567-6.95-6.828zm9.79-1.603c-.129-2.02-1.147-2.992-2.916-2.992-1.77 0-2.788 1.094-3.038 2.992h5.954zM81.82 14.757v-.197a6.646 6.646 0 016.342-6.942h.532c3.47 0 6.524 2.02 6.524 6.835v1.026H85.58c.099 2.217 1.299 3.47 3.319 3.47 1.74 0 2.552-.76 2.787-1.868h3.471c-.433 2.894-2.742 4.504-6.395 4.504-4.002-.03-6.942-2.567-6.942-6.828zm9.79-1.603c-.129-2.02-1.147-2.992-2.916-2.992-1.77 0-2.757 1.124-3.038 2.985l5.954.007zM60.76 7.899h3.888l2.378 9.007L69.63 7.9h3.038l2.354 9.007L77.53 7.9h3.562L76.87 21.28h-3.646l-2.278-8.4-2.438 8.4h-3.692L60.76 7.899zm-12.358 9.174h3.471c.16 1.208.76 1.9 2.355 1.9 1.428 0 2.088-.54 2.088-1.46 0-.918-.76-1.305-2.704-1.579-3.562-.54-4.936-1.564-4.936-4.177 0-2.787 2.552-4.17 5.316-4.17 2.97 0 5.21 1.079 5.53 4.155h-3.426a1.807 1.807 0 00-1.982-1.633H54c-1.2 0-1.899.562-1.899 1.382 0 .82.646 1.177 2.605 1.458 3.327.502 5.188 1.345 5.188 4.208 0 2.863-2.104 4.397-5.628 4.397s-5.765-1.587-5.864-4.48zM33.653 7.899h3.676v2.119a4.602 4.602 0 014.337-2.43c2.605 0 4.496 1.587 4.496 5.21v8.513h-3.63V13.33c0-1.815-.706-2.68-2.347-2.68a2.642 2.642 0 00-2.863 2.414 2.08 2.08 0 000 .486v7.732h-3.669V7.899zM26.56 4.534a1.853 1.853 0 111.914 1.785h-.069a1.731 1.731 0 01-1.838-1.625 1.133 1.133 0 01-.007-.16zm0 3.365h3.714V21.28h-3.699L26.56 7.899zM12.563 2.992h11.741v3.243H16.71v4.838h6.015v3.122h-6.022v7.086h-4.14V2.992zM5.476 8.977c0 1.147 0 2.544-1.58 3.114 1.618.555 1.58 1.732 1.58 2.962v4.557c0 .866.35 1.39.972 1.52.137.045.281.066.425.06h1.52v3.038H5.885c-2.673 0-4.147-1.52-4.147-4.337V14.5a1.109 1.109 0 00-1.086-1.033H0V10.8h.653A1.101 1.101 0 001.74 9.737V4.268C1.74 1.496 3.182 0 5.886 0h2.53v2.992h-1.52c-.144 0-.288.024-.425.069-.623.16-.972.676-.972 1.519l-.023 4.397z"/></g><defs><clipPath id="clip0_201_278"><path fill="#fff" d="M0 0h120v24.304H0z"/></clipPath></defs></svg>