<svg width="16" height="17" fill="none" xmlns="http://www.w3.org/2000/svg"><g clip-path="url(#clip0_1_1769)"><path d="M14.816.522H1.18C.528.522 0 1.038 0 1.676v13.69a1.17 1.17 0 001.181 1.157h13.635c.653 0 1.184-.52 1.184-1.154V1.676c0-.638-.531-1.154-1.184-1.154zM4.746 14.157H2.373V6.519h2.375v7.638zM3.56 5.479a1.376 1.376 0 11-.004-2.752 1.376 1.376 0 01.004 2.752zm10.075 8.678h-2.372v-3.713c0-.884-.015-2.025-1.234-2.025-1.234 0-1.422.966-1.422 1.963v3.775h-2.37V6.519h2.275v1.044h.032c.315-.6 1.09-1.234 2.243-1.234 2.404 0 2.847 1.581 2.847 3.637v4.19z" fill="#232536"/></g><defs><clipPath id="clip0_1_1769"><path fill="#fff" transform="translate(0 .522)" d="M0 0h16v16H0z"/></clipPath></defs></svg>